<svg width="382" height="138" viewBox="0 0 382 138" fill="none" xmlns="http://www.w3.org/2000/svg">
<rect width="382" height="138" fill="white"/>
<path opacity="0.2" d="M173.25 66.8125L183.083 56.9798C183.228 56.8348 183.4 56.7197 183.59 56.6411C183.779 56.5626 183.982 56.5222 184.187 56.5222C184.393 56.5222 184.596 56.5626 184.785 56.6411C184.975 56.7197 185.147 56.8348 185.292 56.9798L194.02 65.7076C194.165 65.8527 194.337 65.9678 194.527 66.0463C194.717 66.1249 194.92 66.1653 195.125 66.1653C195.33 66.1653 195.533 66.1249 195.723 66.0463C195.912 65.9678 196.085 65.8527 196.23 65.7076L200.27 61.6673C200.415 61.5223 200.587 61.4072 200.777 61.3286C200.967 61.2501 201.17 61.2097 201.375 61.2097C201.58 61.2097 201.783 61.2501 201.973 61.3286C202.162 61.4072 202.335 61.5223 202.48 61.6673L210.75 69.9375L210.75 44.9375C210.75 44.5231 210.585 44.1257 210.292 43.8326C209.999 43.5396 209.602 43.375 209.188 43.375H174.812C174.398 43.375 174.001 43.5396 173.708 43.8326C173.415 44.1257 173.25 44.5231 173.25 44.9375V66.8125Z" fill="#41A0E4"/>
<path d="M209.188 43.375H174.812C173.95 43.375 173.25 44.0746 173.25 44.9375V73.0625C173.25 73.9254 173.95 74.625 174.812 74.625H209.188C210.05 74.625 210.75 73.9254 210.75 73.0625V44.9375C210.75 44.0746 210.05 43.375 209.188 43.375Z" stroke="#41A0E4" stroke-width="2" stroke-linecap="round" stroke-linejoin="round"/>
<path d="M173.25 66.8124L183.083 56.9798C183.228 56.8347 183.4 56.7196 183.59 56.6411C183.779 56.5625 183.982 56.5221 184.187 56.5221C184.393 56.5221 184.596 56.5625 184.785 56.6411C184.975 56.7196 185.147 56.8347 185.292 56.9798L194.02 65.7076C194.165 65.8527 194.337 65.9677 194.527 66.0463C194.717 66.1248 194.92 66.1652 195.125 66.1652C195.33 66.1652 195.533 66.1248 195.723 66.0463C195.912 65.9677 196.085 65.8527 196.23 65.7076L200.27 61.6673C200.415 61.5222 200.587 61.4071 200.777 61.3286C200.967 61.25 201.17 61.2096 201.375 61.2096C201.58 61.2096 201.783 61.25 201.973 61.3286C202.162 61.4071 202.335 61.5222 202.48 61.6673L210.75 69.9374" stroke="#41A0E4" stroke-width="2" stroke-linecap="round" stroke-linejoin="round"/>
<path d="M197.469 55.875C198.763 55.875 199.812 54.8257 199.812 53.5312C199.812 52.2368 198.763 51.1875 197.469 51.1875C196.174 51.1875 195.125 52.2368 195.125 53.5312C195.125 54.8257 196.174 55.875 197.469 55.875Z" fill="#41A0E4"/>
<circle cx="208" cy="75" r="9" fill="#BDBDBD"/>
<g clip-path="url(#clip0_1_439)">
<path d="M204.399 75.6655L203.951 75.2244C203.761 75.0376 203.761 74.7356 203.951 74.5508L207.873 70.6879C208.063 70.5011 208.37 70.5011 208.558 70.6879L212.48 74.5488C212.67 74.7356 212.67 75.0376 212.48 75.2224L212.032 75.6636C211.84 75.8523 211.527 75.8484 211.339 75.6556L209.024 73.2632V78.9741C209.024 79.2383 208.808 79.451 208.54 79.451H207.894C207.625 79.451 207.409 79.2383 207.409 78.9741V73.2632L205.092 75.6576C204.904 75.8523 204.591 75.8563 204.399 75.6655Z" fill="#E8F7EE" fill-opacity="0.8"/>
</g>
<path d="M103.516 99.084C103.516 99.78 103.276 100.36 102.796 100.824C102.324 101.28 101.6 101.508 100.624 101.508H99.016V105H97.924V96.636H100.624C101.568 96.636 102.284 96.864 102.772 97.32C103.268 97.776 103.516 98.364 103.516 99.084ZM100.624 100.608C101.232 100.608 101.68 100.476 101.968 100.212C102.256 99.948 102.4 99.572 102.4 99.084C102.4 98.052 101.808 97.536 100.624 97.536H99.016V100.608H100.624ZM105.437 97.356C105.229 97.356 105.053 97.284 104.909 97.14C104.765 96.996 104.693 96.82 104.693 96.612C104.693 96.404 104.765 96.228 104.909 96.084C105.053 95.94 105.229 95.868 105.437 95.868C105.637 95.868 105.805 95.94 105.941 96.084C106.085 96.228 106.157 96.404 106.157 96.612C106.157 96.82 106.085 96.996 105.941 97.14C105.805 97.284 105.637 97.356 105.437 97.356ZM105.965 98.424V105H104.873V98.424H105.965ZM108.918 96.12V105H107.826V96.12H108.918ZM111.343 97.356C111.135 97.356 110.959 97.284 110.815 97.14C110.671 96.996 110.599 96.82 110.599 96.612C110.599 96.404 110.671 96.228 110.815 96.084C110.959 95.94 111.135 95.868 111.343 95.868C111.543 95.868 111.711 95.94 111.847 96.084C111.991 96.228 112.063 96.404 112.063 96.612C112.063 96.82 111.991 96.996 111.847 97.14C111.711 97.284 111.543 97.356 111.343 97.356ZM111.871 98.424V105H110.779V98.424H111.871ZM116.997 98.304C117.493 98.304 117.941 98.412 118.341 98.628C118.741 98.836 119.053 99.152 119.277 99.576C119.509 100 119.625 100.516 119.625 101.124V105H118.545V101.28C118.545 100.624 118.381 100.124 118.053 99.78C117.725 99.428 117.277 99.252 116.709 99.252C116.133 99.252 115.673 99.432 115.329 99.792C114.993 100.152 114.825 100.676 114.825 101.364V105H113.733V96.12H114.825V99.36C115.041 99.024 115.337 98.764 115.713 98.58C116.097 98.396 116.525 98.304 116.997 98.304ZM127.32 98.316C127.888 98.316 128.384 98.44 128.808 98.688C129.24 98.936 129.56 99.248 129.768 99.624V98.424H130.872V105.144C130.872 105.744 130.744 106.276 130.488 106.74C130.232 107.212 129.864 107.58 129.384 107.844C128.912 108.108 128.36 108.24 127.728 108.24C126.864 108.24 126.144 108.036 125.568 107.628C124.992 107.22 124.652 106.664 124.548 105.96H125.628C125.748 106.36 125.996 106.68 126.372 106.92C126.748 107.168 127.2 107.292 127.728 107.292C128.328 107.292 128.816 107.104 129.192 106.728C129.576 106.352 129.768 105.824 129.768 105.144V103.764C129.552 104.148 129.232 104.468 128.808 104.724C128.384 104.98 127.888 105.108 127.32 105.108C126.736 105.108 126.204 104.964 125.724 104.676C125.252 104.388 124.88 103.984 124.608 103.464C124.336 102.944 124.2 102.352 124.2 101.688C124.2 101.016 124.336 100.428 124.608 99.924C124.88 99.412 125.252 99.016 125.724 98.736C126.204 98.456 126.736 98.316 127.32 98.316ZM129.768 101.7C129.768 101.204 129.668 100.772 129.468 100.404C129.268 100.036 128.996 99.756 128.652 99.564C128.316 99.364 127.944 99.264 127.536 99.264C127.128 99.264 126.756 99.36 126.42 99.552C126.084 99.744 125.816 100.024 125.616 100.392C125.416 100.76 125.316 101.192 125.316 101.688C125.316 102.192 125.416 102.632 125.616 103.008C125.816 103.376 126.084 103.66 126.42 103.86C126.756 104.052 127.128 104.148 127.536 104.148C127.944 104.148 128.316 104.052 128.652 103.86C128.996 103.66 129.268 103.376 129.468 103.008C129.668 102.632 129.768 102.196 129.768 101.7ZM132.309 101.688C132.309 101.016 132.445 100.428 132.717 99.924C132.989 99.412 133.361 99.016 133.833 98.736C134.313 98.456 134.845 98.316 135.429 98.316C136.005 98.316 136.505 98.44 136.929 98.688C137.353 98.936 137.669 99.248 137.877 99.624V98.424H138.981V105H137.877V103.776C137.661 104.16 137.337 104.48 136.905 104.736C136.481 104.984 135.985 105.108 135.417 105.108C134.833 105.108 134.305 104.964 133.833 104.676C133.361 104.388 132.989 103.984 132.717 103.464C132.445 102.944 132.309 102.352 132.309 101.688ZM137.877 101.7C137.877 101.204 137.777 100.772 137.577 100.404C137.377 100.036 137.105 99.756 136.761 99.564C136.425 99.364 136.053 99.264 135.645 99.264C135.237 99.264 134.865 99.36 134.529 99.552C134.193 99.744 133.925 100.024 133.725 100.392C133.525 100.76 133.425 101.192 133.425 101.688C133.425 102.192 133.525 102.632 133.725 103.008C133.925 103.376 134.193 103.66 134.529 103.86C134.865 104.052 135.237 104.148 135.645 104.148C136.053 104.148 136.425 104.052 136.761 103.86C137.105 103.66 137.377 103.376 137.577 103.008C137.777 102.632 137.877 102.196 137.877 101.7ZM148.734 98.304C149.246 98.304 149.702 98.412 150.102 98.628C150.502 98.836 150.818 99.152 151.05 99.576C151.282 100 151.398 100.516 151.398 101.124V105H150.318V101.28C150.318 100.624 150.154 100.124 149.826 99.78C149.506 99.428 149.07 99.252 148.518 99.252C147.95 99.252 147.498 99.436 147.162 99.804C146.826 100.164 146.658 100.688 146.658 101.376V105H145.578V101.28C145.578 100.624 145.414 100.124 145.086 99.78C144.766 99.428 144.33 99.252 143.778 99.252C143.21 99.252 142.758 99.436 142.422 99.804C142.086 100.164 141.918 100.688 141.918 101.376V105H140.826V98.424H141.918V99.372C142.134 99.028 142.422 98.764 142.782 98.58C143.15 98.396 143.554 98.304 143.994 98.304C144.546 98.304 145.034 98.428 145.458 98.676C145.882 98.924 146.198 99.288 146.406 99.768C146.59 99.304 146.894 98.944 147.318 98.688C147.742 98.432 148.214 98.304 148.734 98.304ZM154.282 99.648C154.506 99.256 154.834 98.936 155.266 98.688C155.698 98.44 156.19 98.316 156.742 98.316C157.334 98.316 157.866 98.456 158.338 98.736C158.81 99.016 159.182 99.412 159.454 99.924C159.726 100.428 159.862 101.016 159.862 101.688C159.862 102.352 159.726 102.944 159.454 103.464C159.182 103.984 158.806 104.388 158.326 104.676C157.854 104.964 157.326 105.108 156.742 105.108C156.174 105.108 155.674 104.984 155.242 104.736C154.818 104.488 154.498 104.172 154.282 103.788V105H153.19V96.12H154.282V99.648ZM158.746 101.688C158.746 101.192 158.646 100.76 158.446 100.392C158.246 100.024 157.974 99.744 157.63 99.552C157.294 99.36 156.922 99.264 156.514 99.264C156.114 99.264 155.742 99.364 155.398 99.564C155.062 99.756 154.79 100.04 154.582 100.416C154.382 100.784 154.282 101.212 154.282 101.7C154.282 102.196 154.382 102.632 154.582 103.008C154.79 103.376 155.062 103.66 155.398 103.86C155.742 104.052 156.114 104.148 156.514 104.148C156.922 104.148 157.294 104.052 157.63 103.86C157.974 103.66 158.246 103.376 158.446 103.008C158.646 102.632 158.746 102.192 158.746 101.688ZM160.891 101.688C160.891 101.016 161.027 100.428 161.299 99.924C161.571 99.412 161.943 99.016 162.415 98.736C162.895 98.456 163.427 98.316 164.011 98.316C164.587 98.316 165.087 98.44 165.511 98.688C165.935 98.936 166.251 99.248 166.459 99.624V98.424H167.563V105H166.459V103.776C166.243 104.16 165.919 104.48 165.487 104.736C165.063 104.984 164.567 105.108 163.999 105.108C163.415 105.108 162.887 104.964 162.415 104.676C161.943 104.388 161.571 103.984 161.299 103.464C161.027 102.944 160.891 102.352 160.891 101.688ZM166.459 101.7C166.459 101.204 166.359 100.772 166.159 100.404C165.959 100.036 165.687 99.756 165.343 99.564C165.007 99.364 164.635 99.264 164.227 99.264C163.819 99.264 163.447 99.36 163.111 99.552C162.775 99.744 162.507 100.024 162.307 100.392C162.107 100.76 162.007 101.192 162.007 101.688C162.007 102.192 162.107 102.632 162.307 103.008C162.507 103.376 162.775 103.66 163.111 103.86C163.447 104.052 163.819 104.148 164.227 104.148C164.635 104.148 165.007 104.052 165.343 103.86C165.687 103.66 165.959 103.376 166.159 103.008C166.359 102.632 166.459 102.196 166.459 101.7ZM170.5 99.492C170.692 99.116 170.964 98.824 171.316 98.616C171.676 98.408 172.112 98.304 172.624 98.304V99.432H172.336C171.112 99.432 170.5 100.096 170.5 101.424V105H169.408V98.424H170.5V99.492ZM176.676 101.688C176.676 101.016 176.812 100.428 177.084 99.924C177.356 99.412 177.728 99.016 178.2 98.736C178.68 98.456 179.216 98.316 179.808 98.316C180.32 98.316 180.796 98.436 181.236 98.676C181.676 98.908 182.012 99.216 182.244 99.6V96.12H183.348V105H182.244V103.764C182.028 104.156 181.708 104.48 181.284 104.736C180.86 104.984 180.364 105.108 179.796 105.108C179.212 105.108 178.68 104.964 178.2 104.676C177.728 104.388 177.356 103.984 177.084 103.464C176.812 102.944 176.676 102.352 176.676 101.688ZM182.244 101.7C182.244 101.204 182.144 100.772 181.944 100.404C181.744 100.036 181.472 99.756 181.128 99.564C180.792 99.364 180.42 99.264 180.012 99.264C179.604 99.264 179.232 99.36 178.896 99.552C178.56 99.744 178.292 100.024 178.092 100.392C177.892 100.76 177.792 101.192 177.792 101.688C177.792 102.192 177.892 102.632 178.092 103.008C178.292 103.376 178.56 103.66 178.896 103.86C179.232 104.052 179.604 104.148 180.012 104.148C180.42 104.148 180.792 104.052 181.128 103.86C181.472 103.66 181.744 103.376 181.944 103.008C182.144 102.632 182.244 102.196 182.244 101.7ZM191.194 101.46C191.194 101.668 191.182 101.888 191.158 102.12H185.902C185.942 102.768 186.162 103.276 186.562 103.644C186.97 104.004 187.462 104.184 188.038 104.184C188.51 104.184 188.902 104.076 189.214 103.86C189.534 103.636 189.758 103.34 189.886 102.972H191.062C190.886 103.604 190.534 104.12 190.006 104.52C189.478 104.912 188.822 105.108 188.038 105.108C187.414 105.108 186.854 104.968 186.358 104.688C185.87 104.408 185.486 104.012 185.206 103.5C184.926 102.98 184.786 102.38 184.786 101.7C184.786 101.02 184.922 100.424 185.194 99.912C185.466 99.4 185.846 99.008 186.334 98.736C186.83 98.456 187.398 98.316 188.038 98.316C188.662 98.316 189.214 98.452 189.694 98.724C190.174 98.996 190.542 99.372 190.798 99.852C191.062 100.324 191.194 100.86 191.194 101.46ZM190.066 101.232C190.066 100.816 189.974 100.46 189.79 100.164C189.606 99.86 189.354 99.632 189.034 99.48C188.722 99.32 188.374 99.24 187.99 99.24C187.438 99.24 186.966 99.416 186.574 99.768C186.19 100.12 185.97 100.608 185.914 101.232H190.066ZM195.839 98.304C196.639 98.304 197.287 98.548 197.783 99.036C198.279 99.516 198.527 100.212 198.527 101.124V105H197.447V101.28C197.447 100.624 197.283 100.124 196.955 99.78C196.627 99.428 196.179 99.252 195.611 99.252C195.035 99.252 194.575 99.432 194.231 99.792C193.895 100.152 193.727 100.676 193.727 101.364V105H192.635V98.424H193.727V99.36C193.943 99.024 194.235 98.764 194.603 98.58C194.979 98.396 195.391 98.304 195.839 98.304ZM203.023 98.316C203.591 98.316 204.087 98.44 204.511 98.688C204.943 98.936 205.263 99.248 205.471 99.624V98.424H206.575V105.144C206.575 105.744 206.447 106.276 206.191 106.74C205.935 107.212 205.567 107.58 205.087 107.844C204.615 108.108 204.063 108.24 203.431 108.24C202.567 108.24 201.847 108.036 201.271 107.628C200.695 107.22 200.355 106.664 200.251 105.96H201.331C201.451 106.36 201.699 106.68 202.075 106.92C202.451 107.168 202.903 107.292 203.431 107.292C204.031 107.292 204.519 107.104 204.895 106.728C205.279 106.352 205.471 105.824 205.471 105.144V103.764C205.255 104.148 204.935 104.468 204.511 104.724C204.087 104.98 203.591 105.108 203.023 105.108C202.439 105.108 201.907 104.964 201.427 104.676C200.955 104.388 200.583 103.984 200.311 103.464C200.039 102.944 199.903 102.352 199.903 101.688C199.903 101.016 200.039 100.428 200.311 99.924C200.583 99.412 200.955 99.016 201.427 98.736C201.907 98.456 202.439 98.316 203.023 98.316ZM205.471 101.7C205.471 101.204 205.371 100.772 205.171 100.404C204.971 100.036 204.699 99.756 204.355 99.564C204.019 99.364 203.647 99.264 203.239 99.264C202.831 99.264 202.459 99.36 202.123 99.552C201.787 99.744 201.519 100.024 201.319 100.392C201.119 100.76 201.019 101.192 201.019 101.688C201.019 102.192 201.119 102.632 201.319 103.008C201.519 103.376 201.787 103.66 202.123 103.86C202.459 104.052 202.831 104.148 203.239 104.148C203.647 104.148 204.019 104.052 204.355 103.86C204.699 103.66 204.971 103.376 205.171 103.008C205.371 102.632 205.471 102.196 205.471 101.7ZM208.012 101.688C208.012 101.016 208.148 100.428 208.42 99.924C208.692 99.412 209.064 99.016 209.536 98.736C210.016 98.456 210.548 98.316 211.132 98.316C211.708 98.316 212.208 98.44 212.632 98.688C213.056 98.936 213.372 99.248 213.58 99.624V98.424H214.684V105H213.58V103.776C213.364 104.16 213.04 104.48 212.608 104.736C212.184 104.984 211.688 105.108 211.12 105.108C210.536 105.108 210.008 104.964 209.536 104.676C209.064 104.388 208.692 103.984 208.42 103.464C208.148 102.944 208.012 102.352 208.012 101.688ZM213.58 101.7C213.58 101.204 213.48 100.772 213.28 100.404C213.08 100.036 212.808 99.756 212.464 99.564C212.128 99.364 211.756 99.264 211.348 99.264C210.94 99.264 210.568 99.36 210.232 99.552C209.896 99.744 209.628 100.024 209.428 100.392C209.228 100.76 209.128 101.192 209.128 101.688C209.128 102.192 209.228 102.632 209.428 103.008C209.628 103.376 209.896 103.66 210.232 103.86C210.568 104.052 210.94 104.148 211.348 104.148C211.756 104.148 212.128 104.052 212.464 103.86C212.808 103.66 213.08 103.376 213.28 103.008C213.48 102.632 213.58 102.196 213.58 101.7ZM219.733 98.304C220.533 98.304 221.181 98.548 221.677 99.036C222.173 99.516 222.421 100.212 222.421 101.124V105H221.341V101.28C221.341 100.624 221.177 100.124 220.849 99.78C220.521 99.428 220.073 99.252 219.505 99.252C218.929 99.252 218.469 99.432 218.125 99.792C217.789 100.152 217.621 100.676 217.621 101.364V105H216.529V98.424H217.621V99.36C217.837 99.024 218.129 98.764 218.497 98.58C218.873 98.396 219.285 98.304 219.733 98.304ZM228.496 99.492C228.688 99.116 228.96 98.824 229.312 98.616C229.672 98.408 230.108 98.304 230.62 98.304V99.432H230.332C229.108 99.432 228.496 100.096 228.496 101.424V105H227.404V98.424H228.496V99.492ZM231.473 101.688C231.473 101.016 231.609 100.428 231.881 99.924C232.153 99.412 232.525 99.016 232.997 98.736C233.477 98.456 234.009 98.316 234.593 98.316C235.169 98.316 235.669 98.44 236.093 98.688C236.517 98.936 236.833 99.248 237.041 99.624V98.424H238.145V105H237.041V103.776C236.825 104.16 236.501 104.48 236.069 104.736C235.645 104.984 235.149 105.108 234.581 105.108C233.997 105.108 233.469 104.964 232.997 104.676C232.525 104.388 232.153 103.984 231.881 103.464C231.609 102.944 231.473 102.352 231.473 101.688ZM237.041 101.7C237.041 101.204 236.941 100.772 236.741 100.404C236.541 100.036 236.269 99.756 235.925 99.564C235.589 99.364 235.217 99.264 234.809 99.264C234.401 99.264 234.029 99.36 233.693 99.552C233.357 99.744 233.089 100.024 232.889 100.392C232.689 100.76 232.589 101.192 232.589 101.688C232.589 102.192 232.689 102.632 232.889 103.008C233.089 103.376 233.357 103.66 233.693 103.86C234.029 104.052 234.401 104.148 234.809 104.148C235.217 104.148 235.589 104.052 235.925 103.86C236.269 103.66 236.541 103.376 236.741 103.008C236.941 102.632 237.041 102.196 237.041 101.7ZM241.322 99.324V103.2C241.322 103.52 241.39 103.748 241.526 103.884C241.662 104.012 241.898 104.076 242.234 104.076H243.038V105H242.054C241.446 105 240.99 104.86 240.686 104.58C240.382 104.3 240.23 103.84 240.23 103.2V99.324H239.378V98.424H240.23V96.768H241.322V98.424H243.038V99.324H241.322ZM244.926 97.356C244.718 97.356 244.542 97.284 244.398 97.14C244.254 96.996 244.182 96.82 244.182 96.612C244.182 96.404 244.254 96.228 244.398 96.084C244.542 95.94 244.718 95.868 244.926 95.868C245.126 95.868 245.294 95.94 245.43 96.084C245.574 96.228 245.646 96.404 245.646 96.612C245.646 96.82 245.574 96.996 245.43 97.14C245.294 97.284 245.126 97.356 244.926 97.356ZM245.454 98.424V105H244.362V98.424H245.454ZM250.183 105.108C249.567 105.108 249.007 104.968 248.503 104.688C248.007 104.408 247.615 104.012 247.327 103.5C247.047 102.98 246.907 102.38 246.907 101.7C246.907 101.028 247.051 100.436 247.339 99.924C247.635 99.404 248.035 99.008 248.539 98.736C249.043 98.456 249.607 98.316 250.231 98.316C250.855 98.316 251.419 98.456 251.923 98.736C252.427 99.008 252.823 99.4 253.111 99.912C253.407 100.424 253.555 101.02 253.555 101.7C253.555 102.38 253.403 102.98 253.099 103.5C252.803 104.012 252.399 104.408 251.887 104.688C251.375 104.968 250.807 105.108 250.183 105.108ZM250.183 104.148C250.575 104.148 250.943 104.056 251.287 103.872C251.631 103.688 251.907 103.412 252.115 103.044C252.331 102.676 252.439 102.228 252.439 101.7C252.439 101.172 252.335 100.724 252.127 100.356C251.919 99.988 251.647 99.716 251.311 99.54C250.975 99.356 250.611 99.264 250.219 99.264C249.819 99.264 249.451 99.356 249.115 99.54C248.787 99.716 248.523 99.988 248.323 100.356C248.123 100.724 248.023 101.172 248.023 101.7C248.023 102.236 248.119 102.688 248.311 103.056C248.511 103.424 248.775 103.7 249.103 103.884C249.431 104.06 249.791 104.148 250.183 104.148ZM259.414 102.672C259.494 103.128 259.678 103.48 259.966 103.728C260.262 103.976 260.658 104.1 261.154 104.1C261.818 104.1 262.306 103.84 262.618 103.32C262.938 102.8 263.09 101.924 263.074 100.692C262.906 101.052 262.626 101.336 262.234 101.544C261.842 101.744 261.406 101.844 260.926 101.844C260.39 101.844 259.91 101.736 259.486 101.52C259.07 101.296 258.742 100.972 258.502 100.548C258.262 100.124 258.142 99.612 258.142 99.012C258.142 98.156 258.39 97.468 258.886 96.948C259.382 96.42 260.086 96.156 260.998 96.156C262.118 96.156 262.902 96.52 263.35 97.248C263.806 97.976 264.034 99.06 264.034 100.5C264.034 101.508 263.942 102.34 263.758 102.996C263.582 103.652 263.278 104.152 262.846 104.496C262.422 104.84 261.838 105.012 261.094 105.012C260.278 105.012 259.642 104.792 259.186 104.352C258.73 103.912 258.47 103.352 258.406 102.672H259.414ZM261.106 100.92C261.642 100.92 262.082 100.756 262.426 100.428C262.77 100.092 262.942 99.64 262.942 99.072C262.942 98.472 262.774 97.988 262.438 97.62C262.102 97.252 261.63 97.068 261.022 97.068C260.462 97.068 260.014 97.244 259.678 97.596C259.35 97.948 259.186 98.412 259.186 98.988C259.186 99.572 259.35 100.04 259.678 100.392C260.006 100.744 260.482 100.92 261.106 100.92ZM266.096 105.072C265.888 105.072 265.712 105 265.568 104.856C265.424 104.712 265.352 104.536 265.352 104.328C265.352 104.12 265.424 103.944 265.568 103.8C265.712 103.656 265.888 103.584 266.096 103.584C266.296 103.584 266.464 103.656 266.6 103.8C266.744 103.944 266.816 104.12 266.816 104.328C266.816 104.536 266.744 104.712 266.6 104.856C266.464 105 266.296 105.072 266.096 105.072ZM266.096 99.936C265.888 99.936 265.712 99.864 265.568 99.72C265.424 99.576 265.352 99.4 265.352 99.192C265.352 98.984 265.424 98.808 265.568 98.664C265.712 98.52 265.888 98.448 266.096 98.448C266.296 98.448 266.464 98.52 266.6 98.664C266.744 98.808 266.816 98.984 266.816 99.192C266.816 99.4 266.744 99.576 266.6 99.72C266.464 99.864 266.296 99.936 266.096 99.936ZM267.835 97.32V96.324H270.091V105H268.987V97.32H267.835ZM276.803 98.388C276.627 97.5 276.079 97.056 275.159 97.056C274.447 97.056 273.915 97.332 273.563 97.884C273.211 98.428 273.039 99.328 273.047 100.584C273.231 100.168 273.535 99.844 273.959 99.612C274.391 99.372 274.871 99.252 275.399 99.252C276.223 99.252 276.879 99.508 277.367 100.02C277.863 100.532 278.111 101.24 278.111 102.144C278.111 102.688 278.003 103.176 277.787 103.608C277.579 104.04 277.259 104.384 276.827 104.64C276.403 104.896 275.887 105.024 275.279 105.024C274.455 105.024 273.811 104.84 273.347 104.472C272.883 104.104 272.559 103.596 272.375 102.948C272.191 102.3 272.099 101.5 272.099 100.548C272.099 97.612 273.123 96.144 275.171 96.144C275.955 96.144 276.571 96.356 277.019 96.78C277.467 97.204 277.731 97.74 277.811 98.388H276.803ZM275.171 100.176C274.827 100.176 274.503 100.248 274.199 100.392C273.895 100.528 273.647 100.74 273.455 101.028C273.271 101.308 273.179 101.652 273.179 102.06C273.179 102.668 273.355 103.164 273.707 103.548C274.059 103.924 274.563 104.112 275.219 104.112C275.779 104.112 276.223 103.94 276.551 103.596C276.887 103.244 277.055 102.772 277.055 102.18C277.055 101.556 276.895 101.068 276.575 100.716C276.255 100.356 275.787 100.176 275.171 100.176Z" fill="#9B9B9B"/>
<defs>
<clipPath id="clip0_1_439">
<rect width="9.04348" height="10.1739" fill="white" transform="translate(203.696 69.9131)"/>
</clipPath>
</defs>
</svg>
